# xmcd
#
# Track frame offsets:
# 150
# 22140
# 32250
# 40515
# 51358
# 61410
# 73120
# 95047
# 116427
# 126852
# 136077
# 157532
# 172054
# 194204
# 212382
# 249189
# 272184
# 290676
#
# Disc length: 4197 seconds
#
# Revision: 0
# Processed by: cddbd v1.4PL0 Copyright (c) Steve Scherf et al.
# Submitted via: Audion 3.0.2 (http://www.panic.com/audion/)
#
DISCID=05106312
DTITLE=penglipur lara - PLV
DYEAR=1900
DGENRE=
TTITLE0=train to doomsville
TTITLE1=warsaw
TTITLE2=banned in dc
TTITLE3=war
TTITLE4=foreign policy
TTITLE5=ugly american
TTITLE6=surprise surprise
TTITLE7=no fuckin' war
TTITLE8=let's have a war
TTITLE9=fuck you
TTITLE10=bloodsport
TTITLE11=war
TTITLE12=airborne ranger
TTITLE13=straight to  heaven
TTITLE14=finland red, egypt white
TTITLE15=jihad
TTITLE16=war
TTITLE17=none care call it conspiracy
EXTD=
EXTT0=
EXTT1=
EXTT2=
EXTT3=
EXTT4=
EXTT5=
EXTT6=
EXTT7=
EXTT8=
EXTT9=
EXTT10=
EXTT11=
EXTT12=
EXTT13=
EXTT14=
EXTT15=
EXTT16=
EXTT17=
PLAYORDER=
